<svg width="98" height="43" viewBox="0 0 98 43" fill="none" xmlns="http://www.w3.org/2000/svg">
<path d="M25.76 28.6603H33.7883V31.0003H25.76V43.0003H23.18V31.0003H0.5V28.5403L22.88 0.280273H25.76V28.6603ZM23.18 28.6603V3.52027L3.32 28.6603H23.18Z" fill="white"/>
<path d="M67.1483 0.280273L51.9683 20.8603L68.1683 43.0003H65.1683L57.7283 32.8603C56.8083 31.6203 55.7683 30.2003 54.6083 28.6003C53.4483 26.9603 52.5483 25.7003 51.9083 24.8203C51.2683 23.9403 50.7683 23.2603 50.4083 22.7803C49.9683 23.3803 49.3883 24.1603 48.6683 25.1203C47.9883 26.0803 47.1083 27.3003 46.0283 28.7803C44.9483 30.2603 43.9883 31.6003 43.1483 32.8003L35.5883 43.0003H32.7083L48.9083 20.9803L33.7883 0.280273H36.7883L43.3283 9.22027C45.0083 11.6603 47.3883 14.9403 50.4683 19.0603C51.1883 18.0203 52.2683 16.5403 53.7083 14.6203C55.6283 11.9803 56.7283 10.4603 57.0083 10.0603L64.2683 0.280273H67.1483Z" fill="white"/>
<path d="M75.4409 0.280273V40.6603H97.7609V43.0003H72.8609V0.280273H75.4409Z" fill="white"/>
</svg>
